<?xml version="1.0" encoding="UTF-8" standalone="no"?>
<!-- Created with Inkscape (http://www.inkscape.org/) -->

<svg
   width="40mm"
   height="40mm"
   viewBox="0 0 40 40"
   version="1.1"
   id="svg5"
   inkscape:version="1.1 (c68e22c387, 2021-05-23)"
   sodipodi:docname="community.svg"
   xmlns:inkscape="http://www.inkscape.org/namespaces/inkscape"
   xmlns:sodipodi="http://sodipodi.sourceforge.net/DTD/sodipodi-0.dtd"
   xmlns="http://www.w3.org/2000/svg"
   xmlns:svg="http://www.w3.org/2000/svg">
  <sodipodi:namedview
     id="namedview7"
     pagecolor="#ffffff"
     bordercolor="#666666"
     borderopacity="1.0"
     inkscape:pageshadow="2"
     inkscape:pageopacity="0.0"
     inkscape:pagecheckerboard="0"
     inkscape:document-units="mm"
     showgrid="false"
     inkscape:zoom="2.1997092"
     inkscape:cx="-50.688518"
     inkscape:cy="115.46981"
     inkscape:window-width="1920"
     inkscape:window-height="1122"
     inkscape:window-x="-8"
     inkscape:window-y="-8"
     inkscape:window-maximized="1"
     inkscape:current-layer="layer1" />
  <defs
     id="defs2">
    <clipPath
       id="clip0">
      <rect
         x="1426"
         y="1052"
         width="326"
         height="250"
         id="rect927" />
    </clipPath>
    <clipPath
       id="clip1">
      <rect
         x="1459"
         y="1052"
         width="250"
         height="250"
         id="rect930" />
    </clipPath>
    <clipPath
       id="clip2">
      <rect
         x="1459"
         y="1052"
         width="250"
         height="250"
         id="rect933" />
    </clipPath>
    <clipPath
       id="clip3">
      <rect
         x="1459"
         y="1052"
         width="250"
         height="250"
         id="rect936" />
    </clipPath>
    <clipPath
       id="clip4">
      <path
         d="M1426.3 1140.12 1467.99 1067.29 1510.64 1091.7 1468.95 1164.53Z"
         fill-rule="evenodd"
         clip-rule="evenodd"
         id="path939" />
    </clipPath>
    <clipPath
       id="clip5">
      <path
         d="M1426.3 1140.12 1467.99 1067.29 1510.64 1091.7 1468.95 1164.53Z"
         fill-rule="evenodd"
         clip-rule="evenodd"
         id="path942" />
    </clipPath>
    <clipPath
       id="clip6">
      <path
         d="M1426.3 1140.12 1470.56 1062.79 1523.88 1093.31 1479.62 1170.64Z"
         fill-rule="evenodd"
         clip-rule="evenodd"
         id="path945" />
    </clipPath>
    <clipPath
       id="clip7">
      <path
         d="M1667.3 1266.94 1708.99 1194.11 1751.64 1218.52 1709.95 1291.35Z"
         fill-rule="evenodd"
         clip-rule="evenodd"
         id="path948" />
    </clipPath>
    <clipPath
       id="clip8">
      <path
         d="M1667.3 1266.94 1708.99 1194.11 1751.64 1218.52 1709.95 1291.35Z"
         fill-rule="evenodd"
         clip-rule="evenodd"
         id="path951" />
    </clipPath>
    <clipPath
       id="clip9">
      <path
         d="M1667.3 1266.94 1711.56 1189.62 1764.88 1220.13 1720.62 1297.46Z"
         fill-rule="evenodd"
         clip-rule="evenodd"
         id="path954" />
    </clipPath>
  </defs>
  <g
     inkscape:label="Capa 1"
     inkscape:groupmode="layer"
     id="layer1">
    <style
       id="style9">
.MsftOfcThm_MainDark1_Fill_v2 {
 fill:#000000; 
}
</style>
    <style
       id="style329">
.MsftOfcThm_MainDark1_Fill_v2 {
 fill:#000000; 
}
</style>
    <style
       id="style522">
.MsftOfcThm_MainDark1_Fill_v2 {
 fill:#000000; 
}
</style>
    <style
       id="style716">
.MsftOfcThm_MainDark1_Fill_v2 {
 fill:#000000; 
}
</style>
    <style
       id="style1175">
.MsftOfcThm_MainDark1_Fill_v2 {
 fill:#000000; 
}
</style>
    <style
       id="style1391">
.MsftOfcThm_MainDark1_Fill_v2 {
 fill:#000000; 
}
</style>
    <style
       id="style1620">
.MsftOfcThm_MainDark1_Fill_v2 {
 fill:#000000; 
}
</style>
    <style
       id="style1866">
.MsftOfcThm_MainDark1_Fill_v2 {
 fill:#000000; 
}
</style>
    <path
       d="m 28.557497,13.023847 c -2.020051,0 -3.657619,-1.705063 -3.657619,-3.8083725 0,-2.1033148 1.637568,-3.8083827 3.657619,-3.8083827 2.02005,0 3.657618,1.7050679 3.657618,3.8083827 0,2.1033095 -1.637568,3.8083725 -3.657618,3.8083725 z"
       class="MsftOfcThm_MainDark1_Fill_v2"
       id="path1868"
       style="stroke-width:0.533176" />
    <path
       d="m 12.881986,13.023847 c -2.02005,0 -3.6576179,-1.705063 -3.6576179,-3.8083725 0,-2.1033148 1.6375679,-3.8083827 3.6576179,-3.8083827 2.020051,0 3.657619,1.7050679 3.657619,3.8083827 0,2.1033095 -1.637568,3.8083725 -3.657619,3.8083725 z"
       class="MsftOfcThm_MainDark1_Fill_v2"
       id="path1870"
       style="stroke-width:0.533176" />
    <path
       d="m 20.719742,21.728914 c -2.308743,0 -4.180347,-1.948744 -4.180347,-4.352642 0,-2.403899 1.871604,-4.352643 4.180347,-4.352643 2.30874,0 4.180346,1.948744 4.180346,4.352643 0,2.403898 -1.871606,4.352642 -4.180346,4.352642 z"
       class="MsftOfcThm_MainDark1_Fill_v2"
       stroke-width="0.639812"
       id="path1872" />
    <path
       d="m 29.080902,30.43284 c 0,-3.605985 -2.807954,-6.528637 -6.270884,-6.528637 h -4.179822 c -3.462929,0 -6.270831,2.922652 -6.270831,6.528637 v 1.088105 c 0,0.865372 0.330858,1.695977 0.918324,2.308201 0.588615,0.612222 1.385401,0.956064 2.21709,0.956064 h 10.450707 c 0.831691,0 1.628477,-0.343842 2.217092,-0.956064 0.587466,-0.612224 0.918324,-1.442829 0.918324,-2.308201 z"
       class="MsftOfcThm_MainDark1_Fill_v2"
       stroke-width="0.903541"
       id="path1874" />
    <path
       d="M 11.38811,26.081122 H 8.7018616 c -0.8313264,0 -1.628687,-0.343843 -2.2170415,-0.955902 C 5.896989,24.512616 5.5667595,23.682391 5.5667595,22.816803 v -1.088107 c 0,-1.731722 0.6604609,-3.392171 1.8366465,-4.61629 1.1756623,-1.224664 2.770374,-1.912347 4.433546,-1.912347 h 2.090069 c 0.288951,0 0.576336,0.02067 0.859539,0.06148 -0.218412,0.663201 -0.337023,1.374822 -0.337023,2.114735 0,1.834548 0.728389,3.493909 1.900394,4.679944 -2.113059,0.622398 -3.885959,2.087533 -4.961821,4.024906 z"
       class="MsftOfcThm_MainDark1_Fill_v2"
       id="path1876"
       style="stroke-width:0.533176" />
    <path
       d="m 26.652923,15.261537 c 0.283204,-0.0408 0.570588,-0.06148 0.859539,-0.06148 h 2.090069 c 1.66317,0 3.257894,0.687683 4.433556,1.912347 1.176186,1.224119 1.836648,2.884568 1.836648,4.61629 v 1.088107 c 0,0.865588 -0.330231,1.695813 -0.918062,2.308417 -0.588355,0.612059 -1.385715,0.955902 -2.21704,0.955902 h -2.68626 c -1.075862,-1.937373 -2.848764,-3.402508 -4.961823,-4.024906 1.172007,-1.186035 1.900396,-2.845396 1.900396,-4.679944 0,-0.739913 -0.118611,-1.451534 -0.337023,-2.114735 z"
       class="MsftOfcThm_MainDark1_Fill_v2"
       id="path1878"
       style="stroke-width:0.533176" />
  </g>
</svg>
