<?xml version="1.0" encoding="UTF-8" standalone="no"?>
<!-- Created with Inkscape (http://www.inkscape.org/) -->

<svg
   width="40mm"
   height="40mm"
   viewBox="0 0 40 40"
   version="1.1"
   id="svg5"
   inkscape:version="1.1 (c68e22c387, 2021-05-23)"
   sodipodi:docname="connect.svg"
   xmlns:inkscape="http://www.inkscape.org/namespaces/inkscape"
   xmlns:sodipodi="http://sodipodi.sourceforge.net/DTD/sodipodi-0.dtd"
   xmlns="http://www.w3.org/2000/svg"
   xmlns:svg="http://www.w3.org/2000/svg">
  <sodipodi:namedview
     id="namedview7"
     pagecolor="#ffffff"
     bordercolor="#666666"
     borderopacity="1.0"
     inkscape:pageshadow="2"
     inkscape:pageopacity="0.0"
     inkscape:pagecheckerboard="0"
     inkscape:document-units="mm"
     showgrid="false"
     inkscape:zoom="2.1997092"
     inkscape:cx="-50.688518"
     inkscape:cy="115.46981"
     inkscape:window-width="1920"
     inkscape:window-height="1122"
     inkscape:window-x="-8"
     inkscape:window-y="-8"
     inkscape:window-maximized="1"
     inkscape:current-layer="layer1" />
  <defs
     id="defs2">
    <clipPath
       id="clip0">
      <rect
         x="1426"
         y="1052"
         width="326"
         height="250"
         id="rect927" />
    </clipPath>
    <clipPath
       id="clip1">
      <rect
         x="1459"
         y="1052"
         width="250"
         height="250"
         id="rect930" />
    </clipPath>
    <clipPath
       id="clip2">
      <rect
         x="1459"
         y="1052"
         width="250"
         height="250"
         id="rect933" />
    </clipPath>
    <clipPath
       id="clip3">
      <rect
         x="1459"
         y="1052"
         width="250"
         height="250"
         id="rect936" />
    </clipPath>
    <clipPath
       id="clip4">
      <path
         d="M1426.3 1140.12 1467.99 1067.29 1510.64 1091.7 1468.95 1164.53Z"
         fill-rule="evenodd"
         clip-rule="evenodd"
         id="path939" />
    </clipPath>
    <clipPath
       id="clip5">
      <path
         d="M1426.3 1140.12 1467.99 1067.29 1510.64 1091.7 1468.95 1164.53Z"
         fill-rule="evenodd"
         clip-rule="evenodd"
         id="path942" />
    </clipPath>
    <clipPath
       id="clip6">
      <path
         d="M1426.3 1140.12 1470.56 1062.79 1523.88 1093.31 1479.62 1170.64Z"
         fill-rule="evenodd"
         clip-rule="evenodd"
         id="path945" />
    </clipPath>
    <clipPath
       id="clip7">
      <path
         d="M1667.3 1266.94 1708.99 1194.11 1751.64 1218.52 1709.95 1291.35Z"
         fill-rule="evenodd"
         clip-rule="evenodd"
         id="path948" />
    </clipPath>
    <clipPath
       id="clip8">
      <path
         d="M1667.3 1266.94 1708.99 1194.11 1751.64 1218.52 1709.95 1291.35Z"
         fill-rule="evenodd"
         clip-rule="evenodd"
         id="path951" />
    </clipPath>
    <clipPath
       id="clip9">
      <path
         d="M1667.3 1266.94 1711.56 1189.62 1764.88 1220.13 1720.62 1297.46Z"
         fill-rule="evenodd"
         clip-rule="evenodd"
         id="path954" />
    </clipPath>
  </defs>
  <g
     inkscape:label="Capa 1"
     inkscape:groupmode="layer"
     id="layer1">
    <style
       id="style9">
.MsftOfcThm_MainDark1_Fill_v2 {
 fill:#000000; 
}
</style>
    <style
       id="style329">
.MsftOfcThm_MainDark1_Fill_v2 {
 fill:#000000; 
}
</style>
    <style
       id="style522">
.MsftOfcThm_MainDark1_Fill_v2 {
 fill:#000000; 
}
</style>
    <style
       id="style716">
.MsftOfcThm_MainDark1_Fill_v2 {
 fill:#000000; 
}
</style>
    <style
       id="style1175">
.MsftOfcThm_MainDark1_Fill_v2 {
 fill:#000000; 
}
</style>
    <style
       id="style1391">
.MsftOfcThm_MainDark1_Fill_v2 {
 fill:#000000; 
}
</style>
    <style
       id="style1620">
.MsftOfcThm_MainDark1_Fill_v2 {
 fill:#000000; 
}
</style>
    <g
       id="g1640"
       transform="matrix(0.06573875,0,0,0.06619259,3.4509546,2.8937959)">
      <path
         d="m 264,232.01 c 4.418,0 8,-3.582 8,-8 V 192 h -16 v 24.01 h -32 c -1.871,0 -3.683,0.656 -5.121,1.854 L 173.1,256.01 H 144 c -4.418,0 -8,3.582 -8,8 v 32.732 L 80.015,257.99 C 80.009,257.336 80,256.69 80,256.01 80.0351,194.72 111.913,137.851 164.178,105.838 l -8.356,-13.645 c -6.723,4.1205 -13.187,8.649 -19.356,13.559 C 90.5755,142.098 63.8712,197.47 64,256.01 c 0,2.281 0.034,4.407 0.1,6.5 0.7955,25.876 6.8833,51.314 17.888,74.747 -43.4999,7.738 -72.49072,49.274 -64.7528,92.774 7.738,43.5 49.2745,72.491 92.7748,64.753 43.499,-7.738 72.49,-49.274 64.752,-92.774 -6.578,-36.981 -37.998,-64.405 -75.528,-65.924 -9.2748,-18.031 -15.3102,-37.551 -17.831,-57.67 l 58.039,40.176 c 3.631,2.517 8.615,1.614 11.133,-2.017 0.929,-1.34 1.427,-2.933 1.425,-4.565 v -40 h 24 c 1.872,0 3.684,-0.656 5.121,-1.855 L 226.9,232.01 Z M 54.181,464.43 c 5.8795,-10.436 15.451,-18.295 26.832,-22.03 4.199,-1.375 6.4886,-5.893 5.1139,-10.092 -0.5659,-1.729 -1.7041,-3.213 -3.2269,-4.208 -11.1047,-7.237 -14.24,-22.106 -7.0028,-33.211 7.2371,-11.105 22.1061,-14.24 33.2108,-7.003 11.105,7.237 14.24,22.106 7.003,33.211 -1.822,2.796 -4.207,5.181 -7.003,7.003 -3.699,2.416 -4.739,7.373 -2.323,11.073 0.994,1.522 2.478,2.661 4.206,3.227 11.381,3.735 20.952,11.593 26.832,22.029 -24.015,20.76 -59.6234,20.76 -83.638,0 z M 160,416 c 0.022,12.841 -3.844,25.388 -11.088,35.991 -5.484,-8.06 -12.737,-14.761 -21.206,-19.591 13.469,-17.511 10.192,-42.624 -7.319,-56.093 -17.511,-13.469 -42.6244,-10.192 -56.093,7.319 -11.0587,14.377 -11.0587,34.396 0,48.774 -8.4687,4.83 -15.722,11.531 -21.206,19.591 C 23.2033,422.768 30.7731,382.959 59.9956,363.075 89.218,343.19 129.027,350.76 148.912,379.982 156.139,390.603 160.003,403.153 160,416 Z"
         class="MsftOfcThm_MainDark1_Fill_v2"
         stroke-width="1.00031"
         id="path1622" />
      <path
         d="M 51.878,296.189 C 33.2558,201.022 82.7477,105.589 171.263,65.984 L 164.737,51.375 C 69.4179,94.0182 16.121,196.785 36.177,299.264 Z"
         class="MsftOfcThm_MainDark1_Fill_v2"
         stroke-width="1.00031"
         id="path1624" />
      <path
         d="m 44.748,330.666 15.086,-5.332 c -1.915,-5.418 -3.625,-10.988 -5.082,-16.559 l -15.479,4.049 c 1.57,6.001 3.412,12.004 5.475,17.842 z"
         class="MsftOfcThm_MainDark1_Fill_v2"
         stroke-width="1.00031"
         id="path1626" />
      <path
         d="m 256,464 c -23.616,0.03 -47.065,-3.972 -69.334,-11.834 l -5.332,15.086 c 23.982,8.468 49.233,12.779 74.666,12.748 12.639,10e-4 25.256,-1.057 37.719,-3.163 l -2.676,-15.775 c -11.578,1.957 -23.3,2.94 -35.043,2.938 z"
         class="MsftOfcThm_MainDark1_Fill_v2"
         stroke-width="1.00031"
         id="path1628" />
      <path
         d="m 306.312,457.876 3.858,15.524 c 6.9,-1.713 13.795,-3.783 20.5,-6.151 l -5.332,-15.086 c -6.224,2.201 -12.623,4.122 -19.026,5.713 z"
         class="MsftOfcThm_MainDark1_Fill_v2"
         stroke-width="1.00031"
         id="path1630" />
      <path
         d="m 464,256 c 0.03,23.616 -3.972,47.065 -11.834,69.334 l 15.086,5.332 C 500.717,235.694 466.784,130.06 384.272,72.342 L 375.1,85.451 C 430.769,124.405 463.948,188.056 464,256 Z"
         class="MsftOfcThm_MainDark1_Fill_v2"
         stroke-width="1.00031"
         id="path1632" />
      <path
         d="m 372.436,64.6 c -5.467,-3.333 -11.145,-6.468 -16.875,-9.316 l -7.122,14.328 c 5.32,2.644 10.591,5.554 15.668,8.65 z"
         class="MsftOfcThm_MainDark1_Fill_v2"
         stroke-width="1.00031"
         id="path1634" />
      <path
         d="m 256,176 c 42.944,0.001 78.225,-33.91 79.924,-76.821 5.076,2.593 10.041,5.43 14.84,8.5 14.863,9.497 28.212,21.176 39.6,34.645 l -25.678,25.68 H 320 c -4.418,0 -8,3.582 -8,8 v 51.719 l -20.438,13.625 c -2.226,1.484 -3.563,3.983 -3.562,6.659 v 56 c 0,4.418 3.582,8 8,8 h 48 c 1.58,0 3.124,-0.468 4.438,-1.344 l 45.984,-30.656 h 35.95 c -1.726,12.708 -4.847,25.186 -9.307,37.21 l 15,5.566 C 448.5,288 448,259.672 448,256.01 448.012,190.485 414.602,129.479 359.385,94.2 351.44,89.1157 343.132,84.6232 334.527,80.759 326.105,37.3908 284.121,9.06114 240.753,17.4829 197.385,25.9047 169.055,67.8888 177.477,111.257 184.778,148.853 217.702,175.999 256,176 Z m 176,80.01 c 0,2.085 -0.05,4.173 -0.124,6.255 l -2.439,1.742 H 392 c -1.58,0 -3.124,0.468 -4.438,1.344 l -45.984,30.656 H 304 v -43.719 l 20.438,-13.625 c 2.225,-1.484 3.562,-3.981 3.562,-6.656 v -48 h 40 c 2.122,0 4.157,-0.843 5.657,-2.343 L 400.22,155.1 c 20.802,29.527 31.908,64.791 31.78,100.91 z M 214.181,144.43 c 5.88,-10.436 15.451,-18.295 26.832,-22.03 4.199,-1.376 6.487,-5.895 5.11,-10.094 -0.566,-1.728 -1.704,-3.212 -3.227,-4.206 -11.105,-7.237 -14.24,-22.1061 -7.003,-33.2108 7.237,-11.1047 22.106,-14.24 33.211,-7.0029 11.105,7.2371 14.24,22.1061 7.003,33.2107 -1.822,2.796 -4.207,5.181 -7.003,7.003 -3.699,2.416 -4.739,7.373 -2.323,11.073 0.994,1.522 2.478,2.661 4.206,3.227 11.381,3.735 20.952,11.593 26.832,22.029 -24.015,20.76 -59.623,20.76 -83.638,0 z M 256,32 c 35.341,-0.0054 63.994,28.6395 64,63.9802 0.002,12.8448 -3.862,25.3918 -11.088,36.0108 -5.484,-8.06 -12.737,-14.761 -21.206,-19.591 13.469,-17.5107 10.192,-42.6245 -7.319,-56.0931 -17.511,-13.4686 -42.624,-10.1918 -56.093,7.3189 -11.059,14.3776 -11.059,34.3967 0,48.7742 -8.469,4.83 -15.722,11.531 -21.206,19.591 C 183.205,102.774 190.772,62.9706 219.989,43.0877 230.608,35.8615 243.156,31.998 256,32 Z"
         class="MsftOfcThm_MainDark1_Fill_v2"
         stroke-width="1.00031"
         id="path1636" />
      <path
         d="m 416,336 c -21.48,-0.009 -42.055,8.647 -57.068,24.01 H 344 v -24 c 0,-4.418 -3.582,-8 -8,-8 h -72 c -4.418,0 -8,3.582 -8,8 v 56 c 0,4.418 3.582,8 8,8 h 24 v 29.083 c -10.557,1.937 -21.267,2.913 -32,2.917 -20.895,0.029 -41.626,-3.675 -61.218,-10.937 l -5.564,15 c 21.372,7.925 43.988,11.967 66.782,11.937 28.058,-0.108 55.765,-6.246 81.243,-18 7.738,43.5 49.274,72.491 92.774,64.754 43.5,-7.738 72.491,-49.274 64.753,-92.774 C 487.979,363.809 454.781,335.997 416,336 Z m -144,48.01 v -40 h 56 v 24 c 0,4.418 3.582,8 8,8 h 10.757 c -6.5,11.195 -10.164,23.81 -10.675,36.745 -10.253,5.249 -20.999,9.471 -32.082,12.606 V 392.01 c 0,-4.418 -3.582,-8 -8,-8 z M 416,352 c 35.341,-0.005 63.994,28.64 64,63.98 0.002,12.845 -3.862,25.392 -11.088,36.011 -5.484,-8.06 -12.737,-14.761 -21.206,-19.591 13.469,-17.511 10.192,-42.624 -7.319,-56.093 -17.511,-13.469 -42.624,-10.192 -56.093,7.319 -11.059,14.377 -11.059,34.396 0,48.774 -8.469,4.83 -15.722,11.531 -21.206,19.591 -19.883,-29.217 -12.316,-69.02 16.901,-88.903 C 390.608,355.861 403.156,351.998 416,352 Z m -41.819,112.43 c 5.88,-10.436 15.451,-18.295 26.832,-22.03 4.199,-1.376 6.487,-5.895 5.11,-10.094 -0.566,-1.728 -1.704,-3.212 -3.227,-4.206 -11.105,-7.237 -14.24,-22.106 -7.003,-33.211 7.237,-11.105 22.106,-14.24 33.211,-7.003 11.105,7.237 14.24,22.106 7.003,33.211 -1.822,2.796 -4.207,5.181 -7.003,7.003 -3.699,2.416 -4.739,7.373 -2.323,11.073 0.994,1.522 2.478,2.661 4.206,3.227 11.381,3.735 20.952,11.593 26.832,22.029 -24.015,20.76 -59.623,20.76 -83.638,0 z"
         class="MsftOfcThm_MainDark1_Fill_v2"
         stroke-width="1.00031"
         id="path1638" />
    </g>
  </g>
</svg>
