<?xml version="1.0" encoding="UTF-8" standalone="no"?>
<!-- Created with Inkscape (http://www.inkscape.org/) -->

<svg
   width="40mm"
   height="40mm"
   viewBox="0 0 40 40"
   version="1.1"
   id="svg5"
   inkscape:version="1.1 (c68e22c387, 2021-05-23)"
   sodipodi:docname="deploy.svg"
   xmlns:inkscape="http://www.inkscape.org/namespaces/inkscape"
   xmlns:sodipodi="http://sodipodi.sourceforge.net/DTD/sodipodi-0.dtd"
   xmlns="http://www.w3.org/2000/svg"
   xmlns:svg="http://www.w3.org/2000/svg">
  <sodipodi:namedview
     id="namedview7"
     pagecolor="#ffffff"
     bordercolor="#666666"
     borderopacity="1.0"
     inkscape:pageshadow="2"
     inkscape:pageopacity="0.0"
     inkscape:pagecheckerboard="0"
     inkscape:document-units="mm"
     showgrid="false"
     inkscape:zoom="3.1108586"
     inkscape:cx="104.95495"
     inkscape:cy="135.65387"
     inkscape:window-width="1920"
     inkscape:window-height="1122"
     inkscape:window-x="-8"
     inkscape:window-y="-8"
     inkscape:window-maximized="1"
     inkscape:current-layer="layer1" />
  <defs
     id="defs2">
    <clipPath
       id="clip0">
      <rect
         x="1426"
         y="1052"
         width="326"
         height="250"
         id="rect927" />
    </clipPath>
    <clipPath
       id="clip1">
      <rect
         x="1459"
         y="1052"
         width="250"
         height="250"
         id="rect930" />
    </clipPath>
    <clipPath
       id="clip2">
      <rect
         x="1459"
         y="1052"
         width="250"
         height="250"
         id="rect933" />
    </clipPath>
    <clipPath
       id="clip3">
      <rect
         x="1459"
         y="1052"
         width="250"
         height="250"
         id="rect936" />
    </clipPath>
    <clipPath
       id="clip4">
      <path
         d="M1426.3 1140.12 1467.99 1067.29 1510.64 1091.7 1468.95 1164.53Z"
         fill-rule="evenodd"
         clip-rule="evenodd"
         id="path939" />
    </clipPath>
    <clipPath
       id="clip5">
      <path
         d="M1426.3 1140.12 1467.99 1067.29 1510.64 1091.7 1468.95 1164.53Z"
         fill-rule="evenodd"
         clip-rule="evenodd"
         id="path942" />
    </clipPath>
    <clipPath
       id="clip6">
      <path
         d="M1426.3 1140.12 1470.56 1062.79 1523.88 1093.31 1479.62 1170.64Z"
         fill-rule="evenodd"
         clip-rule="evenodd"
         id="path945" />
    </clipPath>
    <clipPath
       id="clip7">
      <path
         d="M1667.3 1266.94 1708.99 1194.11 1751.64 1218.52 1709.95 1291.35Z"
         fill-rule="evenodd"
         clip-rule="evenodd"
         id="path948" />
    </clipPath>
    <clipPath
       id="clip8">
      <path
         d="M1667.3 1266.94 1708.99 1194.11 1751.64 1218.52 1709.95 1291.35Z"
         fill-rule="evenodd"
         clip-rule="evenodd"
         id="path951" />
    </clipPath>
    <clipPath
       id="clip9">
      <path
         d="M1667.3 1266.94 1711.56 1189.62 1764.88 1220.13 1720.62 1297.46Z"
         fill-rule="evenodd"
         clip-rule="evenodd"
         id="path954" />
    </clipPath>
  </defs>
  <g
     inkscape:label="Capa 1"
     inkscape:groupmode="layer"
     id="layer1">
    <style
       id="style9">
.MsftOfcThm_MainDark1_Fill_v2 {
 fill:#000000; 
}
</style>
    <style
       id="style329">
.MsftOfcThm_MainDark1_Fill_v2 {
 fill:#000000; 
}
</style>
    <style
       id="style522">
.MsftOfcThm_MainDark1_Fill_v2 {
 fill:#000000; 
}
</style>
    <style
       id="style716">
.MsftOfcThm_MainDark1_Fill_v2 {
 fill:#000000; 
}
</style>
    <style
       id="style1175">
.MsftOfcThm_MainDark1_Fill_v2 {
 fill:#000000; 
}
</style>
    <style
       id="style1391">
.MsftOfcThm_MainDark1_Fill_v2 {
 fill:#000000; 
}
</style>
    <g
       id="g1403"
       transform="matrix(0.26458333,0,0,0.26458333,7.5741079,4.4076444)">
      <g
         id="g1401">
        <path
           d="M 84.4,49.4 C 83.2,48.2 81.7,47.5 80.2,47.3 80.5,45 79.8,42.7 78.1,40.9 77,39.8 75.5,39.1 74,38.8 c 0.1,-0.4 0.1,-0.7 0.1,-1.1 0,-2 -0.8,-4 -2.2,-5.4 -0.7,-0.7 -1.5,-1.2 -2.4,-1.6 l 8.1,-8.1 c 3,-3 3,-7.8 0,-10.8 -3,-3 -7.8,-3 -10.8,0 L 38.5,40.1 c -1.1,-2.2 -2.9,-5.3 -5.2,-8.1 -1.5,-1.9 -3.5,-3.7 -5.9,-5.4 -3.5,-2.5 -8.1,-2.5 -11.5,0 -2.8,2 -3.5,5.7 -1.6,8.6 l 4.2,6.5 c 2.2,3.4 3.3,7.4 3.2,11.5 l -0.3,12.4 c 0,1.2 -0.5,2.3 -1.4,3.2 l -5.7,5.7 c -0.9,0.9 -0.9,2.4 0,3.4 0.5,0.5 1.1,0.7 1.7,0.7 0.6,0 1.2,-0.2 1.7,-0.7 l 5.7,-5.7 c 1.7,-1.7 2.7,-4 2.8,-6.5 l 0.3,-12.4 c 0.1,-5 -1.3,-10 -4,-14.2 L 18.3,32.6 C 17.8,31.9 18,31 18.7,30.5 c 1.8,-1.3 4.2,-1.3 5.9,0 2,1.4 3.7,3 4.9,4.5 3.6,4.5 6,10.1 6,10.1 0.3,0.7 1,1.3 1.7,1.4 0.8,0.2 1.6,-0.1 2.2,-0.7 L 70.1,15.1 c 1.1,-1.1 2.9,-1.1 4,0 1.1,1.1 1.1,2.9 0,4 L 50.8,42.7 c -1.9,1.9 -2.6,4.5 -2.1,6.9 2.2,10.2 -5.6,14.9 -5.9,15.1 -1.1,0.7 -1.5,2.1 -0.9,3.3 0.4,0.8 1.2,1.2 2.1,1.2 0.4,0 0.8,-0.1 1.2,-0.3 3,-1.7 7.7,-6.4 8.6,-13.6 0.8,0.3 1.6,0.4 2.5,0.4 0.4,0 0.8,-0.1 1.1,-0.1 0.3,1.5 1,2.9 2.1,4.1 1.5,1.5 3.4,2.2 5.4,2.2 0.3,0 0.6,-0.1 1,-0.1 0.2,1.5 0.9,3 2.1,4.2 v 0 c 0.8,0.8 1.8,1.4 2.8,1.8 -4,5.6 -8.8,10.7 -12.4,14.3 -3.2,3.1 -7.6,4.4 -12,3.4 L 43.8,84.9 C 43,84.7 42.2,85 41.6,85.5 l -8,8 c -0.9,0.9 -0.9,2.4 0,3.4 0.5,0.5 1.1,0.7 1.7,0.7 0.6,0 1.2,-0.2 1.7,-0.7 l 7,-7 1.3,0.3 c 5.9,1.4 12.1,-0.4 16.4,-4.6 4.5,-4.4 10.6,-11 15.1,-18.1 0.7,-0.4 1.4,-0.8 1.9,-1.4 l 5.8,-5.8 c 1.4,-1.4 2.2,-3.4 2.2,-5.4 0,-2.1 -0.8,-4 -2.3,-5.5 z m -26.2,0.7 c -1.1,1.1 -2.9,1.1 -4,0 -1.1,-1.1 -1.1,-2.9 0,-4 L 64.5,35.8 c 1.1,-1.1 2.9,-1.1 4,0 0.5,0.5 0.8,1.3 0.8,2 0,0.8 -0.3,1.5 -0.8,2 z m 8.6,6.2 c -1.1,1.1 -2.9,1.1 -4,0 -1.1,-1.1 -1.1,-2.9 0,-4 l 7.9,-7.9 c 0.6,-0.6 1.3,-0.8 2,-0.8 0.7,0 1.5,0.3 2,0.8 1.1,1.1 1.1,2.9 0,4 z m 14.2,0.6 -5.8,5.8 c -1.1,1.1 -2.9,1.1 -4,0 -1.1,-1.1 -1.1,-2.9 0,-4 L 77,52.9 c 1.1,-1.1 2.9,-1.1 4,0 0.5,0.5 0.8,1.3 0.8,2 0.1,0.7 -0.2,1.4 -0.8,2 z"
           class="MsftOfcThm_MainDark1_Fill_v2"
           stroke-width="1.00003"
           id="path1393" />
        <path
           d="m 37,13.9 c 1.3,0 2.4,-1.1 2.4,-2.4 V 4.9 c 0,-1.3 -1.1,-2.4 -2.4,-2.4 -1.3,0 -2.4,1.1 -2.4,2.4 v 6.6 c 0,1.3 1.1,2.4 2.4,2.4 z"
           class="MsftOfcThm_MainDark1_Fill_v2"
           stroke-width="1.00003"
           id="path1395" />
        <path
           d="m 24.9,17.5 c 0.5,0.5 1.1,0.7 1.7,0.7 0.6,0 1.2,-0.2 1.7,-0.7 0.9,-0.9 0.9,-2.4 0,-3.4 L 23.6,9.4 c -0.9,-0.9 -2.5,-0.9 -3.4,0 -0.9,0.9 -0.9,2.4 0,3.4 z"
           class="MsftOfcThm_MainDark1_Fill_v2"
           stroke-width="1.00003"
           id="path1397" />
        <path
           d="m 47.4,18.2 c 0.6,0 1.2,-0.2 1.7,-0.7 l 4.7,-4.7 c 0.9,-0.9 0.9,-2.4 0,-3.4 -0.9,-0.9 -2.5,-0.9 -3.4,0 l -4.7,4.7 c -0.9,0.9 -0.9,2.4 0,3.4 0.5,0.5 1.1,0.7 1.7,0.7 z"
           class="MsftOfcThm_MainDark1_Fill_v2"
           stroke-width="1.00003"
           id="path1399" />
      </g>
    </g>
  </g>
</svg>
