<?xml version="1.0" encoding="UTF-8" standalone="no"?>
<!-- Created with Inkscape (http://www.inkscape.org/) -->

<svg
   width="40mm"
   height="40mm"
   viewBox="0 0 40 40"
   version="1.1"
   id="svg5"
   inkscape:version="1.1 (c68e22c387, 2021-05-23)"
   sodipodi:docname="haptic.svg"
   xmlns:inkscape="http://www.inkscape.org/namespaces/inkscape"
   xmlns:sodipodi="http://sodipodi.sourceforge.net/DTD/sodipodi-0.dtd"
   xmlns="http://www.w3.org/2000/svg"
   xmlns:svg="http://www.w3.org/2000/svg">
  <sodipodi:namedview
     id="namedview7"
     pagecolor="#ffffff"
     bordercolor="#666666"
     borderopacity="1.0"
     inkscape:pageshadow="2"
     inkscape:pageopacity="0.0"
     inkscape:pagecheckerboard="0"
     inkscape:document-units="mm"
     showgrid="false"
     inkscape:zoom="1.5554293"
     inkscape:cx="-45.325107"
     inkscape:cy="178.08588"
     inkscape:window-width="1920"
     inkscape:window-height="1122"
     inkscape:window-x="-8"
     inkscape:window-y="-8"
     inkscape:window-maximized="1"
     inkscape:current-layer="layer1" />
  <defs
     id="defs2">
    <clipPath
       id="clip0">
      <rect
         x="1426"
         y="1052"
         width="326"
         height="250"
         id="rect927" />
    </clipPath>
    <clipPath
       id="clip1">
      <rect
         x="1459"
         y="1052"
         width="250"
         height="250"
         id="rect930" />
    </clipPath>
    <clipPath
       id="clip2">
      <rect
         x="1459"
         y="1052"
         width="250"
         height="250"
         id="rect933" />
    </clipPath>
    <clipPath
       id="clip3">
      <rect
         x="1459"
         y="1052"
         width="250"
         height="250"
         id="rect936" />
    </clipPath>
    <clipPath
       id="clip4">
      <path
         d="M1426.3 1140.12 1467.99 1067.29 1510.64 1091.7 1468.95 1164.53Z"
         fill-rule="evenodd"
         clip-rule="evenodd"
         id="path939" />
    </clipPath>
    <clipPath
       id="clip5">
      <path
         d="M1426.3 1140.12 1467.99 1067.29 1510.64 1091.7 1468.95 1164.53Z"
         fill-rule="evenodd"
         clip-rule="evenodd"
         id="path942" />
    </clipPath>
    <clipPath
       id="clip6">
      <path
         d="M1426.3 1140.12 1470.56 1062.79 1523.88 1093.31 1479.62 1170.64Z"
         fill-rule="evenodd"
         clip-rule="evenodd"
         id="path945" />
    </clipPath>
    <clipPath
       id="clip7">
      <path
         d="M1667.3 1266.94 1708.99 1194.11 1751.64 1218.52 1709.95 1291.35Z"
         fill-rule="evenodd"
         clip-rule="evenodd"
         id="path948" />
    </clipPath>
    <clipPath
       id="clip8">
      <path
         d="M1667.3 1266.94 1708.99 1194.11 1751.64 1218.52 1709.95 1291.35Z"
         fill-rule="evenodd"
         clip-rule="evenodd"
         id="path951" />
    </clipPath>
    <clipPath
       id="clip9">
      <path
         d="M1667.3 1266.94 1711.56 1189.62 1764.88 1220.13 1720.62 1297.46Z"
         fill-rule="evenodd"
         clip-rule="evenodd"
         id="path954" />
    </clipPath>
  </defs>
  <g
     inkscape:label="Capa 1"
     inkscape:groupmode="layer"
     id="layer1">
    <style
       id="style9">
.MsftOfcThm_MainDark1_Fill_v2 {
 fill:#000000; 
}
</style>
    <style
       id="style329">
.MsftOfcThm_MainDark1_Fill_v2 {
 fill:#000000; 
}
</style>
    <style
       id="style522">
.MsftOfcThm_MainDark1_Fill_v2 {
 fill:#000000; 
}
</style>
    <style
       id="style716">
.MsftOfcThm_MainDark1_Fill_v2 {
 fill:#000000; 
}
</style>
    <g
       clip-path="url(#clip0)"
       transform="matrix(0.099487,0,0,0.13077104,-136.74334,-135.00907)"
       id="g999">
      <g
         clip-path="url(#clip1)"
         id="g965">
        <g
           clip-path="url(#clip2)"
           id="g963">
          <g
             clip-path="url(#clip3)"
             id="g961">
            <path
               d="m 1527.17,1078.55 -56.83,98.46 56.82,98.43 h 113.65 l 56.84,-98.42 -2.16,-3.74 -54.68,-94.71 z m 8.66,15.01 h 96.33 l 48.19,83.45 -48.19,83.42 h -96.33 L 1487.66,1177 Z"
               id="path959" />
          </g>
        </g>
      </g>
      <g
         clip-path="url(#clip4)"
         id="g981">
        <g
           clip-path="url(#clip5)"
           id="g979">
          <g
             clip-path="url(#clip6)"
             id="g977">
            <path
               d="m 41.527,14.5467 c -1.0812,-0.8354 -2.5064,-2.0149 -5.1602,-2.0149 -2.6538,0 -4.1281,1.1795 -5.1601,2.0149 -1.0321,0.8355 -1.4252,1.1795 -2.703,1.1795 -1.2777,0 -1.8183,-0.4423 -2.7029,-1.1795 -0.8846,-0.7371 -2.5064,-2.0149 -5.1602,-2.0149 -2.6538,0 -4.1281,1.1795 -5.1601,2.0149 -1.0321,0.8355 -1.4252,1.1795 -2.703,1.1795 -1.2777,0 -1.8183,-0.4423 -2.7029,-1.1795 C 9.18999,13.8096 7.56823,12.5318 4.91444,12.5318 H 2.94866 v 3.9316 h 1.96578 c 1.27775,0 1.81834,0.4423 2.70294,1.1794 0.88459,0.7372 2.50632,2.0149 5.16012,2.0149 2.6538,0 4.1282,-1.1794 5.1602,-2.0149 1.032,-0.8354 1.4252,-1.1794 2.7029,-1.1794 1.2778,0 1.8184,0.4423 2.703,1.1794 0.8846,0.7372 2.5063,2.0149 5.1601,2.0149 2.6538,0 4.1282,-1.1794 5.1602,-2.0149 1.032,-0.8354 1.4252,-1.1794 2.7029,-1.1794 1.2778,0 1.8184,0.4423 2.703,1.1794 0.8846,0.7372 2.5063,2.0149 5.1601,2.0149 h 1.9658 V 15.7262 H 44.2299 C 42.9522,15.677 42.4116,15.2839 41.527,14.5467 Z"
               transform="matrix(0.90058,-1.57346,0.867896,0.496746,1426.3,1140.12)"
               id="path967" />
            <path
               d="m 41.527,23.0487 c -1.0812,-0.8355 -2.5064,-2.0149 -5.1602,-2.0149 -2.6538,0 -4.1281,1.1794 -5.1601,2.0149 -1.0321,0.8355 -1.4252,1.1795 -2.703,1.1795 -1.2777,0 -1.8183,-0.4423 -2.7029,-1.1795 -0.8846,-0.7372 -2.5064,-2.0149 -5.1602,-2.0149 -2.6538,0 -4.1281,1.1794 -5.1601,2.0149 -1.0321,0.8355 -1.4252,1.1795 -2.703,1.1795 -1.2777,0 -1.8183,-0.4423 -2.7029,-1.1795 C 9.18999,22.3115 7.56823,21.0338 4.91444,21.0338 H 2.94866 v 3.9315 h 1.96578 c 1.27775,0 1.81834,0.4423 2.70294,1.1795 0.88459,0.7372 2.50632,2.0149 5.16012,2.0149 2.6538,0 4.1282,-1.1794 5.1602,-2.0149 1.032,-0.8355 1.4252,-1.1795 2.7029,-1.1795 1.2778,0 1.8184,0.4423 2.703,1.1795 0.8846,0.7372 2.5063,2.0149 5.1601,2.0149 2.6538,0 4.1282,-1.1794 5.1602,-2.0149 1.032,-0.8355 1.4252,-1.1795 2.7029,-1.1795 1.2778,0 1.8184,0.4423 2.703,1.1795 0.8846,0.7372 2.5063,2.0149 5.1601,2.0149 h 1.9658 V 24.2282 H 44.2299 C 42.9522,24.179 42.4116,23.7859 41.527,23.0487 Z"
               transform="matrix(0.90058,-1.57346,0.867896,0.496746,1426.3,1140.12)"
               id="path969" />
            <path
               d="m 41.527,31.5507 c -1.0812,-0.8355 -2.5064,-2.0149 -5.1602,-2.0149 -2.6538,0 -4.1281,1.1794 -5.1601,2.0149 -1.0321,0.8354 -1.4252,1.1794 -2.703,1.1794 -1.2777,0 -1.8183,-0.4423 -2.7029,-1.1794 -0.8846,-0.7372 -2.5064,-2.0149 -5.1602,-2.0149 -2.6538,0 -4.1281,1.1794 -5.1601,2.0149 -1.0321,0.8354 -1.4252,1.1794 -2.703,1.1794 -1.2777,0 -1.8183,-0.4423 -2.7029,-1.1794 C 9.18999,30.8135 7.56823,29.5358 4.91444,29.5358 H 2.94866 v 3.9315 h 1.96578 c 1.27775,0 1.81834,0.4423 2.70294,1.1795 0.88459,0.7371 2.50632,2.0149 5.16012,2.0149 2.6538,0 4.1282,-1.1795 5.1602,-2.0149 1.032,-0.8355 1.4252,-1.1795 2.7029,-1.1795 1.2778,0 1.8184,0.4423 2.703,1.1795 0.8846,0.7371 2.5063,2.0149 5.1601,2.0149 2.6538,0 4.1282,-1.1795 5.1602,-2.0149 1.032,-0.8355 1.4252,-1.1795 2.7029,-1.1795 1.2778,0 1.8184,0.4423 2.703,1.1795 0.8846,0.7371 2.5063,2.0149 5.1601,2.0149 h 1.9658 V 32.7301 H 44.2299 C 42.9522,32.681 42.4116,32.2878 41.527,31.5507 Z"
               transform="matrix(0.90058,-1.57346,0.867896,0.496746,1426.3,1140.12)"
               id="path971" />
            <text
               font-family="Arial, Arial_MSFontService, sans-serif"
               font-weight="700"
               font-size="5px"
               transform="matrix(0.442584,-0.773267,0.426522,0.244123,1475.35,1168)"
               id="text975">Created by Astonish<tspan
   font-size="5px"
   x="0.214945"
   y="4.7771502"
   id="tspan973">from the Noun Project</tspan></text>
          </g>
        </g>
      </g>
      <g
         clip-path="url(#clip7)"
         id="g997">
        <g
           clip-path="url(#clip8)"
           id="g995">
          <g
             clip-path="url(#clip9)"
             id="g993">
            <path
               d="m 41.527,14.5467 c -1.0812,-0.8354 -2.5064,-2.0149 -5.1602,-2.0149 -2.6538,0 -4.1281,1.1795 -5.1601,2.0149 -1.0321,0.8355 -1.4252,1.1795 -2.703,1.1795 -1.2777,0 -1.8183,-0.4423 -2.7029,-1.1795 -0.8846,-0.7371 -2.5064,-2.0149 -5.1602,-2.0149 -2.6538,0 -4.1281,1.1795 -5.1601,2.0149 -1.0321,0.8355 -1.4252,1.1795 -2.703,1.1795 -1.2777,0 -1.8183,-0.4423 -2.7029,-1.1795 C 9.18999,13.8096 7.56823,12.5318 4.91444,12.5318 H 2.94866 v 3.9316 h 1.96578 c 1.27775,0 1.81834,0.4423 2.70294,1.1794 0.88459,0.7372 2.50632,2.0149 5.16012,2.0149 2.6538,0 4.1282,-1.1794 5.1602,-2.0149 1.032,-0.8354 1.4252,-1.1794 2.7029,-1.1794 1.2778,0 1.8184,0.4423 2.703,1.1794 0.8846,0.7372 2.5063,2.0149 5.1601,2.0149 2.6538,0 4.1282,-1.1794 5.1602,-2.0149 1.032,-0.8354 1.4252,-1.1794 2.7029,-1.1794 1.2778,0 1.8184,0.4423 2.703,1.1794 0.8846,0.7372 2.5063,2.0149 5.1601,2.0149 h 1.9658 V 15.7262 H 44.2299 C 42.9522,15.677 42.4116,15.2839 41.527,14.5467 Z"
               transform="matrix(0.90058,-1.57346,0.867896,0.496746,1667.3,1266.94)"
               id="path983" />
            <path
               d="m 41.527,23.0487 c -1.0812,-0.8355 -2.5064,-2.0149 -5.1602,-2.0149 -2.6538,0 -4.1281,1.1794 -5.1601,2.0149 -1.0321,0.8355 -1.4252,1.1795 -2.703,1.1795 -1.2777,0 -1.8183,-0.4423 -2.7029,-1.1795 -0.8846,-0.7372 -2.5064,-2.0149 -5.1602,-2.0149 -2.6538,0 -4.1281,1.1794 -5.1601,2.0149 -1.0321,0.8355 -1.4252,1.1795 -2.703,1.1795 -1.2777,0 -1.8183,-0.4423 -2.7029,-1.1795 C 9.18999,22.3115 7.56823,21.0338 4.91444,21.0338 H 2.94866 v 3.9315 h 1.96578 c 1.27775,0 1.81834,0.4423 2.70294,1.1795 0.88459,0.7372 2.50632,2.0149 5.16012,2.0149 2.6538,0 4.1282,-1.1794 5.1602,-2.0149 1.032,-0.8355 1.4252,-1.1795 2.7029,-1.1795 1.2778,0 1.8184,0.4423 2.703,1.1795 0.8846,0.7372 2.5063,2.0149 5.1601,2.0149 2.6538,0 4.1282,-1.1794 5.1602,-2.0149 1.032,-0.8355 1.4252,-1.1795 2.7029,-1.1795 1.2778,0 1.8184,0.4423 2.703,1.1795 0.8846,0.7372 2.5063,2.0149 5.1601,2.0149 h 1.9658 V 24.2282 H 44.2299 C 42.9522,24.179 42.4116,23.7859 41.527,23.0487 Z"
               transform="matrix(0.90058,-1.57346,0.867896,0.496746,1667.3,1266.94)"
               id="path985" />
            <path
               d="m 41.527,31.5507 c -1.0812,-0.8355 -2.5064,-2.0149 -5.1602,-2.0149 -2.6538,0 -4.1281,1.1794 -5.1601,2.0149 -1.0321,0.8354 -1.4252,1.1794 -2.703,1.1794 -1.2777,0 -1.8183,-0.4423 -2.7029,-1.1794 -0.8846,-0.7372 -2.5064,-2.0149 -5.1602,-2.0149 -2.6538,0 -4.1281,1.1794 -5.1601,2.0149 -1.0321,0.8354 -1.4252,1.1794 -2.703,1.1794 -1.2777,0 -1.8183,-0.4423 -2.7029,-1.1794 C 9.18999,30.8135 7.56823,29.5358 4.91444,29.5358 H 2.94866 v 3.9315 h 1.96578 c 1.27775,0 1.81834,0.4423 2.70294,1.1795 0.88459,0.7371 2.50632,2.0149 5.16012,2.0149 2.6538,0 4.1282,-1.1795 5.1602,-2.0149 1.032,-0.8355 1.4252,-1.1795 2.7029,-1.1795 1.2778,0 1.8184,0.4423 2.703,1.1795 0.8846,0.7371 2.5063,2.0149 5.1601,2.0149 2.6538,0 4.1282,-1.1795 5.1602,-2.0149 1.032,-0.8355 1.4252,-1.1795 2.7029,-1.1795 1.2778,0 1.8184,0.4423 2.703,1.1795 0.8846,0.7371 2.5063,2.0149 5.1601,2.0149 h 1.9658 V 32.7301 H 44.2299 C 42.9522,32.681 42.4116,32.2878 41.527,31.5507 Z"
               transform="matrix(0.90058,-1.57346,0.867896,0.496746,1667.3,1266.94)"
               id="path987" />
            <text
               font-family="Arial, Arial_MSFontService, sans-serif"
               font-weight="700"
               font-size="5px"
               transform="matrix(0.442584,-0.773267,0.426522,0.244123,1716.35,1295)"
               id="text991">Created by Astonish<tspan
   font-size="5px"
   x="0.214945"
   y="4.7771502"
   id="tspan989">from the Noun Project</tspan></text>
          </g>
        </g>
      </g>
    </g>
  </g>
</svg>
