<?xml version="1.0" encoding="UTF-8" standalone="no"?>
<!-- Created with Inkscape (http://www.inkscape.org/) -->

<svg
   width="40mm"
   height="40mm"
   viewBox="0 0 40 40"
   version="1.1"
   id="svg5"
   inkscape:version="1.1 (c68e22c387, 2021-05-23)"
   sodipodi:docname="modular.svg"
   xmlns:inkscape="http://www.inkscape.org/namespaces/inkscape"
   xmlns:sodipodi="http://sodipodi.sourceforge.net/DTD/sodipodi-0.dtd"
   xmlns="http://www.w3.org/2000/svg"
   xmlns:svg="http://www.w3.org/2000/svg">
  <sodipodi:namedview
     id="namedview7"
     pagecolor="#ffffff"
     bordercolor="#666666"
     borderopacity="1.0"
     inkscape:pageshadow="2"
     inkscape:pageopacity="0.0"
     inkscape:pagecheckerboard="0"
     inkscape:document-units="mm"
     showgrid="false"
     inkscape:zoom="2.1997092"
     inkscape:cx="19.775341"
     inkscape:cy="157.29352"
     inkscape:window-width="1920"
     inkscape:window-height="1122"
     inkscape:window-x="-8"
     inkscape:window-y="-8"
     inkscape:window-maximized="1"
     inkscape:current-layer="layer1" />
  <defs
     id="defs2" />
  <g
     inkscape:label="Capa 1"
     inkscape:groupmode="layer"
     id="layer1">
    <style
       id="style9">
.MsftOfcThm_MainDark1_Fill_v2 {
 fill:#000000; 
}
</style>
    <g
       id="g79"
       transform="matrix(0.37206938,0,0,0.36118803,1.9337662,2.4253824)">
      <path
         d="M 71,60.495 H 55.45 c -0.548,0 -1.032,0.283 -1.294,0.758 -0.27,0.489 -0.249,1.093 0.055,1.576 0.702,1.115 0.925,2.459 0.629,3.783 -0.408,1.829 -1.916,3.317 -3.752,3.705 -0.362,0.076 -0.728,0.115 -1.088,0.115 -2.74,0 -4.969,-2.229 -4.969,-4.969 0,-0.958 0.273,-1.887 0.792,-2.687 0.292,-0.453 0.312,-1.009 0.051,-1.488 -0.266,-0.489 -0.775,-0.793 -1.329,-0.793 H 29 c -0.827,0 -1.5,0.673 -1.5,1.5 v 20 c 0,0.827 0.673,1.5 1.5,1.5 h 42 c 0.827,0 1.5,-0.673 1.5,-1.5 v -20 c 0,-0.828 -0.673,-1.5 -1.5,-1.5 z m 0.5,21.5 c 0,0.276 -0.224,0.5 -0.5,0.5 H 29 c -0.276,0 -0.5,-0.224 -0.5,-0.5 v -20 c 0,-0.276 0.224,-0.5 0.5,-0.5 h 15.545 c 0.19,0 0.358,0.101 0.451,0.271 0.04,0.073 0.118,0.265 -0.013,0.467 -0.623,0.963 -0.952,2.08 -0.952,3.23 0,3.291 2.678,5.969 5.969,5.969 0.429,0 0.865,-0.046 1.294,-0.137 2.213,-0.467 4.03,-2.262 4.521,-4.466 0.354,-1.583 0.084,-3.193 -0.758,-4.533 -0.112,-0.178 -0.122,-0.387 -0.026,-0.561 0.05,-0.09 0.17,-0.241 0.418,-0.241 H 71 c 0.276,0 0.5,0.224 0.5,0.5 z"
         class="MsftOfcThm_MainDark1_Fill_v2"
         stroke-width="1.00002"
         id="path11" />
      <path
         d="m 57.406,31.738 c 0,-4.041 -3.288,-7.328 -7.328,-7.328 -4.04,0 -7.328,3.288 -7.328,7.328 0,4.04 3.288,7.328 7.328,7.328 4.04,0 7.328,-3.287 7.328,-7.328 z m -7.328,6.328 c -3.489,0 -6.328,-2.839 -6.328,-6.328 0,-3.489 2.839,-6.328 6.328,-6.328 3.489,0 6.328,2.839 6.328,6.328 0,3.489 -2.839,6.328 -6.328,6.328 z"
         class="MsftOfcThm_MainDark1_Fill_v2"
         stroke-width="1.00002"
         id="path13" />
      <path
         d="m 46.431,41.79 v 0.507 c 0,0.276 0.224,0.5 0.5,0.5 0.276,0 0.5,-0.224 0.5,-0.5 v -0.758 c 0.001,-0.005 0.005,-0.009 0.006,-0.015 0.003,-0.02 -0.002,-0.039 -10e-4,-0.06 0,-0.006 10e-4,-0.012 10e-4,-0.018 0,-0.004 -0.002,-0.006 -0.002,-0.01 -0.001,-0.063 -0.014,-0.122 -0.037,-0.178 -0.001,-0.004 -0.003,-0.007 -0.004,-0.01 -0.05,-0.114 -0.14,-0.206 -0.26,-0.257 -0.004,-0.002 -0.007,-0.004 -0.011,-0.006 -0.01,-0.004 -0.017,-0.011 -0.027,-0.014 -4.021,-1.297 -6.722,-5.007 -6.722,-9.231 0,-5.35 4.353,-9.703 9.703,-9.703 5.35,0 9.703,4.353 9.703,9.703 0,4.224 -2.702,7.934 -6.722,9.231 -0.008,0.002 -0.013,0.008 -0.02,0.011 -0.024,0.009 -0.044,0.023 -0.066,0.035 -0.035,0.019 -0.067,0.039 -0.096,0.065 -0.013,0.012 -0.023,0.025 -0.034,0.039 -0.032,0.036 -0.058,0.075 -0.079,0.119 -0.004,0.009 -0.008,0.019 -0.011,0.028 -0.021,0.053 -0.032,0.109 -0.033,0.168 0,0.004 -0.002,0.007 -0.002,0.011 0,0.006 0.001,0.012 0.001,0.018 10e-4,0.02 -0.005,0.039 -0.001,0.059 0.001,0.006 0.005,0.011 0.006,0.017 v 0.756 c 0,0.276 0.224,0.5 0.5,0.5 0.276,0 0.5,-0.224 0.5,-0.5 V 41.79 c 4.234,-1.533 7.056,-5.521 7.056,-10.052 0,-5.902 -4.801,-10.703 -10.703,-10.703 -5.902,0 -10.703,4.801 -10.703,10.703 0.002,4.531 2.824,8.519 7.058,10.052 z"
         class="MsftOfcThm_MainDark1_Fill_v2"
         stroke-width="1.00002"
         id="path15" />
      <path
         d="M 30.2,38.566 V 24.91 c 0,-0.276 -0.224,-0.5 -0.5,-0.5 H 16.043 c -0.276,0 -0.5,0.224 -0.5,0.5 v 13.656 c 0,0.276 0.224,0.5 0.5,0.5 H 29.7 c 0.276,0 0.5,-0.223 0.5,-0.5 z m -1,-0.5 H 16.543 V 25.41 H 29.2 Z"
         class="MsftOfcThm_MainDark1_Fill_v2"
         stroke-width="1.00002"
         id="path17" />
      <path
         d="m 85.77,39.569 c 0.276,0 0.5,-0.224 0.5,-0.5 0,-0.139 -0.056,-0.264 -0.147,-0.354 L 77.718,24.157 c -0.179,-0.31 -0.688,-0.31 -0.866,0 L 68.387,38.82 c -0.089,0.155 -0.089,0.345 0,0.5 0.089,0.155 0.254,0.25 0.433,0.25 h 16.93 c 0.007,-0.002 0.013,-10e-4 0.02,-10e-4 z m -16.084,-1 7.599,-13.163 7.599,13.163 z"
         class="MsftOfcThm_MainDark1_Fill_v2"
         stroke-width="1.00002"
         id="path19" />
      <path
         d="M 91.6,41.782 77.718,17.738 c -0.179,-0.31 -0.688,-0.31 -0.866,0 L 62.969,41.782 c -0.089,0.155 -0.089,0.345 0,0.5 0.089,0.155 0.254,0.25 0.433,0.25 h 10.079 v 0.351 c 0,0.276 0.224,0.5 0.5,0.5 0.276,0 0.5,-0.224 0.5,-0.5 v -0.851 c 0,-0.276 -0.224,-0.5 -0.5,-0.5 -10e-4,0 -0.002,0 -0.002,0 h -9.71 L 77.285,18.988 90.3,41.532 H 80.278 c -0.001,0 -0.002,0 -0.002,0 -0.276,0 -0.5,0.224 -0.5,0.5 v 0.851 c 0,0.276 0.224,0.5 0.5,0.5 0.276,0 0.5,-0.224 0.5,-0.5 v -0.351 h 10.391 c 0.179,0 0.344,-0.095 0.433,-0.25 0.089,-0.155 0.089,-0.345 0,-0.5 z"
         class="MsftOfcThm_MainDark1_Fill_v2"
         stroke-width="1.00002"
         id="path21" />
      <path
         d="m 45.917,46.363 c 0.098,0.102 0.229,0.153 0.36,0.153 0.125,0 0.25,-0.047 0.348,-0.141 0.185,-0.179 0.384,-0.344 0.595,-0.493 0.133,-0.094 0.212,-0.247 0.212,-0.41 v -0.851 c 0,-0.276 -0.224,-0.5 -0.5,-0.5 0,0 0,0 0,0 -0.276,0 -0.5,0.225 -0.5,0.501 v 0.598 c -0.174,0.135 -0.342,0.28 -0.502,0.435 -0.2,0.193 -0.205,0.51 -0.013,0.708 z"
         class="MsftOfcThm_MainDark1_Fill_v2"
         stroke-width="1.00002"
         id="path23" />
      <path
         d="m 54.731,52.859 c 0.073,0.037 0.15,0.054 0.226,0.054 0.183,0 0.358,-0.1 0.447,-0.274 0.286,-0.563 0.479,-1.165 0.574,-1.789 0.042,-0.273 -0.146,-0.528 -0.419,-0.57 -0.279,-0.041 -0.528,0.146 -0.57,0.419 -0.079,0.519 -0.24,1.019 -0.478,1.487 -0.124,0.247 -0.026,0.548 0.22,0.673 z"
         class="MsftOfcThm_MainDark1_Fill_v2"
         stroke-width="1.00002"
         id="path25" />
      <path
         d="m 54.981,49.136 c 0.04,0.246 0.252,0.42 0.493,0.42 0.027,0 0.054,-0.002 0.081,-0.007 0.273,-0.044 0.458,-0.302 0.413,-0.574 -0.102,-0.622 -0.301,-1.222 -0.593,-1.783 -0.128,-0.244 -0.429,-0.34 -0.675,-0.212 -0.245,0.128 -0.34,0.43 -0.212,0.675 0.243,0.466 0.409,0.965 0.493,1.481 z"
         class="MsftOfcThm_MainDark1_Fill_v2"
         stroke-width="1.00002"
         id="path27" />
      <path
         d="m 47.336,55.246 c 0.074,0.038 0.152,0.056 0.23,0.056 0.181,0 0.355,-0.099 0.445,-0.27 0.127,-0.246 0.031,-0.547 -0.214,-0.675 -0.466,-0.241 -0.889,-0.553 -1.258,-0.928 -0.194,-0.197 -0.511,-0.198 -0.708,-0.005 -0.197,0.194 -0.199,0.511 -0.005,0.708 0.443,0.449 0.951,0.824 1.51,1.114 z"
         class="MsftOfcThm_MainDark1_Fill_v2"
         stroke-width="1.00002"
         id="path29" />
      <path
         d="m 44.595,50.245 c -0.273,0.04 -0.463,0.294 -0.423,0.567 0.091,0.625 0.281,1.229 0.563,1.792 0.087,0.175 0.264,0.277 0.448,0.277 0.075,0 0.151,-0.017 0.223,-0.053 0.247,-0.124 0.348,-0.424 0.224,-0.671 -0.234,-0.469 -0.392,-0.97 -0.467,-1.49 -0.041,-0.273 -0.295,-0.464 -0.568,-0.422 z"
         class="MsftOfcThm_MainDark1_Fill_v2"
         stroke-width="1.00002"
         id="path31" />
      <path
         d="m 52.558,55.318 c 0.076,0 0.154,-0.018 0.227,-0.055 0.562,-0.286 1.072,-0.658 1.518,-1.104 0.195,-0.196 0.195,-0.513 0,-0.708 -0.195,-0.195 -0.512,-0.194 -0.708,0 -0.372,0.372 -0.797,0.682 -1.264,0.92 -0.246,0.125 -0.344,0.427 -0.219,0.673 0.088,0.174 0.263,0.274 0.446,0.274 z"
         class="MsftOfcThm_MainDark1_Fill_v2"
         stroke-width="1.00002"
         id="path33" />
      <path
         d="M 45.476,46.949 C 45.232,46.82 44.93,46.912 44.8,47.157 c -0.296,0.558 -0.5,1.156 -0.606,1.779 -0.046,0.272 0.137,0.531 0.409,0.577 0.028,0.005 0.057,0.007 0.084,0.007 0.24,0 0.451,-0.172 0.493,-0.417 0.088,-0.517 0.257,-1.014 0.503,-1.478 0.13,-0.244 0.037,-0.546 -0.207,-0.676 z"
         class="MsftOfcThm_MainDark1_Fill_v2"
         stroke-width="1.00002"
         id="path35" />
      <path
         d="m 49.279,54.846 c -0.277,-0.043 -0.53,0.142 -0.574,0.415 -0.043,0.273 0.142,0.53 0.415,0.574 0.313,0.05 0.635,0.076 0.958,0.077 0.308,0 0.617,-0.024 0.918,-0.07 0.273,-0.042 0.46,-0.298 0.418,-0.571 -0.042,-0.273 -0.297,-0.457 -0.571,-0.418 -0.508,0.078 -1.051,0.076 -1.564,-0.007 z"
         class="MsftOfcThm_MainDark1_Fill_v2"
         stroke-width="1.00002"
         id="path37" />
      <path
         d="m 53.225,44.123 c -0.276,0 -0.5,0.224 -0.5,0.5 v 0.851 c 0,0.163 0.08,0.315 0.212,0.409 0.211,0.148 0.41,0.314 0.595,0.493 0.097,0.094 0.223,0.141 0.348,0.141 0.131,0 0.262,-0.051 0.36,-0.153 0.192,-0.199 0.187,-0.516 -0.012,-0.708 -0.16,-0.154 -0.328,-0.3 -0.502,-0.435 v -0.598 c -10e-4,-0.276 -0.225,-0.5 -0.501,-0.5 z"
         class="MsftOfcThm_MainDark1_Fill_v2"
         stroke-width="1.00002"
         id="path39" />
      <path
         d="m 19.224,42.745 c 0,0.276 0.224,0.5 0.5,0.5 0.276,0 0.5,-0.224 0.5,-0.5 v -0.85 c 0,-0.276 -0.224,-0.5 -0.5,-0.5 -0.001,0 -0.002,0 -0.002,0 H 13.215 V 22.082 h 19.313 v 19.313 h -6.507 c -0.001,0 -0.002,0 -0.002,0 -0.276,0 -0.5,0.224 -0.5,0.5 v 0.85 c 0,0.276 0.224,0.5 0.5,0.5 0.276,0 0.5,-0.224 0.5,-0.5 v -0.35 h 6.509 c 0.276,0 0.5,-0.224 0.5,-0.5 V 21.582 c 0,-0.276 -0.224,-0.5 -0.5,-0.5 H 12.715 c -0.276,0 -0.5,0.224 -0.5,0.5 v 20.313 c 0,0.276 0.224,0.5 0.5,0.5 h 6.509 z"
         class="MsftOfcThm_MainDark1_Fill_v2"
         stroke-width="1.00002"
         id="path41" />
      <path
         d="m 18.71,46.363 c 0.098,0.102 0.229,0.153 0.36,0.153 0.125,0 0.25,-0.047 0.348,-0.141 0.185,-0.179 0.384,-0.344 0.595,-0.493 0.133,-0.094 0.212,-0.247 0.212,-0.41 v -0.851 c 0,-0.276 -0.224,-0.5 -0.5,-0.5 0,0 0,0 0,0 -0.276,0 -0.5,0.225 -0.5,0.501 v 0.598 c -0.174,0.135 -0.342,0.28 -0.502,0.435 -0.199,0.193 -0.204,0.51 -0.013,0.708 z"
         class="MsftOfcThm_MainDark1_Fill_v2"
         stroke-width="1.00002"
         id="path43" />
      <path
         d="m 27.494,46.979 c -0.245,0.128 -0.34,0.43 -0.213,0.675 0.243,0.467 0.409,0.965 0.494,1.482 0.04,0.246 0.252,0.42 0.493,0.42 0.027,0 0.054,-0.002 0.081,-0.007 0.273,-0.044 0.458,-0.302 0.413,-0.574 -0.102,-0.622 -0.301,-1.222 -0.593,-1.783 -0.128,-0.245 -0.43,-0.341 -0.675,-0.213 z"
         class="MsftOfcThm_MainDark1_Fill_v2"
         stroke-width="1.00002"
         id="path45" />
      <path
         d="m 26.388,53.452 c -0.372,0.372 -0.797,0.682 -1.264,0.92 -0.246,0.125 -0.344,0.427 -0.219,0.673 0.088,0.173 0.264,0.273 0.446,0.273 0.076,0 0.154,-0.018 0.227,-0.055 0.562,-0.286 1.072,-0.658 1.518,-1.104 0.195,-0.196 0.195,-0.513 0,-0.708 -0.196,-0.195 -0.513,-0.193 -0.708,10e-4 z"
         class="MsftOfcThm_MainDark1_Fill_v2"
         stroke-width="1.00002"
         id="path47" />
      <path
         d="m 27.751,52.914 c 0.183,0 0.358,-0.1 0.447,-0.274 0.286,-0.563 0.479,-1.165 0.574,-1.789 0.042,-0.273 -0.146,-0.528 -0.419,-0.57 -0.279,-0.041 -0.529,0.146 -0.57,0.419 -0.079,0.519 -0.24,1.019 -0.478,1.487 -0.125,0.247 -0.026,0.547 0.22,0.673 0.073,0.036 0.15,0.054 0.226,0.054 z"
         class="MsftOfcThm_MainDark1_Fill_v2"
         stroke-width="1.00002"
         id="path49" />
      <path
         d="m 17.593,47.157 c -0.296,0.558 -0.5,1.156 -0.606,1.779 -0.046,0.272 0.137,0.531 0.409,0.577 0.028,0.005 0.057,0.007 0.084,0.007 0.24,0 0.451,-0.172 0.493,-0.417 0.088,-0.517 0.257,-1.014 0.503,-1.478 0.129,-0.244 0.037,-0.547 -0.208,-0.676 -0.242,-0.129 -0.545,-0.036 -0.675,0.208 z"
         class="MsftOfcThm_MainDark1_Fill_v2"
         stroke-width="1.00002"
         id="path51" />
      <path
         d="m 17.956,50.667 c -0.041,-0.274 -0.294,-0.464 -0.567,-0.423 -0.273,0.04 -0.463,0.294 -0.423,0.567 0.091,0.625 0.281,1.229 0.563,1.792 0.087,0.175 0.264,0.277 0.448,0.277 0.075,0 0.151,-0.017 0.223,-0.053 0.247,-0.124 0.348,-0.424 0.224,-0.671 -0.236,-0.468 -0.393,-0.969 -0.468,-1.489 z"
         class="MsftOfcThm_MainDark1_Fill_v2"
         stroke-width="1.00002"
         id="path53" />
      <path
         d="m 20.59,54.357 c -0.466,-0.241 -0.889,-0.553 -1.258,-0.928 -0.194,-0.197 -0.511,-0.198 -0.708,-0.005 -0.197,0.194 -0.199,0.511 -0.005,0.708 0.443,0.45 0.951,0.824 1.51,1.114 0.074,0.038 0.152,0.056 0.23,0.056 0.181,0 0.355,-0.099 0.445,-0.27 0.127,-0.246 0.031,-0.548 -0.214,-0.675 z"
         class="MsftOfcThm_MainDark1_Fill_v2"
         stroke-width="1.00002"
         id="path55" />
      <path
         d="m 23.637,54.852 c -0.508,0.079 -1.051,0.078 -1.564,-0.005 -0.279,-0.043 -0.53,0.142 -0.574,0.415 -0.043,0.273 0.142,0.53 0.415,0.574 0.313,0.05 0.635,0.076 0.958,0.077 0.308,0 0.617,-0.024 0.918,-0.07 0.273,-0.042 0.46,-0.298 0.418,-0.571 -0.042,-0.275 -0.299,-0.459 -0.571,-0.42 z"
         class="MsftOfcThm_MainDark1_Fill_v2"
         stroke-width="1.00002"
         id="path57" />
      <path
         d="m 26.325,46.375 c 0.097,0.094 0.223,0.141 0.348,0.141 0.131,0 0.262,-0.051 0.36,-0.153 0.192,-0.199 0.187,-0.516 -0.012,-0.708 -0.159,-0.154 -0.327,-0.299 -0.501,-0.434 v -0.599 c 0,-0.276 -0.224,-0.5 -0.5,-0.5 -0.276,0 -0.5,0.224 -0.5,0.5 v 0.851 c 0,0.163 0.079,0.315 0.212,0.409 0.209,0.149 0.408,0.314 0.593,0.493 z"
         class="MsftOfcThm_MainDark1_Fill_v2"
         stroke-width="1.00002"
         id="path59" />
      <path
         d="m 73.327,46.516 c 0.125,0 0.25,-0.047 0.348,-0.141 0.185,-0.179 0.384,-0.344 0.595,-0.493 0.133,-0.094 0.212,-0.246 0.212,-0.409 v -0.851 c 0,-0.276 -0.224,-0.5 -0.5,-0.5 -0.276,0 -0.5,0.224 -0.5,0.5 v 0.599 c -0.174,0.135 -0.342,0.28 -0.501,0.434 -0.199,0.192 -0.204,0.509 -0.012,0.708 0.096,0.102 0.227,0.153 0.358,0.153 z"
         class="MsftOfcThm_MainDark1_Fill_v2"
         stroke-width="1.00002"
         id="path61" />
      <path
         d="m 82.61,50.281 c -0.281,-0.041 -0.528,0.146 -0.57,0.419 -0.079,0.519 -0.24,1.019 -0.478,1.487 -0.125,0.247 -0.026,0.547 0.22,0.673 0.073,0.037 0.15,0.054 0.226,0.054 0.183,0 0.358,-0.1 0.447,-0.274 0.286,-0.563 0.479,-1.165 0.574,-1.789 0.041,-0.273 -0.146,-0.528 -0.419,-0.57 z"
         class="MsftOfcThm_MainDark1_Fill_v2"
         stroke-width="1.00002"
         id="path63" />
      <path
         d="m 82.032,49.136 c 0.04,0.246 0.252,0.42 0.493,0.42 0.027,0 0.054,-0.002 0.081,-0.007 0.273,-0.044 0.458,-0.302 0.413,-0.574 -0.102,-0.622 -0.301,-1.222 -0.593,-1.783 -0.128,-0.245 -0.429,-0.341 -0.675,-0.213 -0.245,0.128 -0.34,0.43 -0.213,0.675 0.243,0.467 0.409,0.966 0.494,1.482 z"
         class="MsftOfcThm_MainDark1_Fill_v2"
         stroke-width="1.00002"
         id="path65" />
      <path
         d="m 77.894,54.852 c -0.508,0.079 -1.051,0.078 -1.564,-0.005 -0.277,-0.043 -0.53,0.142 -0.574,0.415 -0.043,0.273 0.142,0.53 0.415,0.574 0.313,0.05 0.635,0.076 0.958,0.077 0.308,0 0.617,-0.024 0.918,-0.07 0.273,-0.042 0.46,-0.298 0.418,-0.571 -0.043,-0.275 -0.298,-0.459 -0.571,-0.42 z"
         class="MsftOfcThm_MainDark1_Fill_v2"
         stroke-width="1.00002"
         id="path67" />
      <path
         d="m 71.653,49.513 c 0.028,0.005 0.057,0.007 0.084,0.007 0.24,0 0.451,-0.172 0.493,-0.417 0.088,-0.517 0.257,-1.014 0.503,-1.478 0.129,-0.244 0.037,-0.547 -0.208,-0.676 -0.245,-0.129 -0.547,-0.037 -0.676,0.208 -0.296,0.558 -0.5,1.156 -0.606,1.779 -0.045,0.272 0.138,0.53 0.41,0.577 z"
         class="MsftOfcThm_MainDark1_Fill_v2"
         stroke-width="1.00002"
         id="path69" />
      <path
         d="m 74.847,54.357 c -0.466,-0.241 -0.889,-0.553 -1.258,-0.928 -0.194,-0.197 -0.511,-0.198 -0.708,-0.005 -0.197,0.194 -0.199,0.511 -0.005,0.708 0.443,0.45 0.951,0.824 1.51,1.114 0.074,0.038 0.152,0.056 0.23,0.056 0.181,0 0.355,-0.099 0.445,-0.27 0.127,-0.246 0.031,-0.548 -0.214,-0.675 z"
         class="MsftOfcThm_MainDark1_Fill_v2"
         stroke-width="1.00002"
         id="path71" />
      <path
         d="m 72.212,50.667 c -0.04,-0.274 -0.297,-0.464 -0.567,-0.423 -0.273,0.04 -0.463,0.294 -0.423,0.567 0.091,0.625 0.281,1.229 0.563,1.792 0.087,0.175 0.264,0.277 0.448,0.277 0.075,0 0.151,-0.017 0.223,-0.053 0.247,-0.124 0.348,-0.424 0.224,-0.671 -0.235,-0.468 -0.392,-0.969 -0.468,-1.489 z"
         class="MsftOfcThm_MainDark1_Fill_v2"
         stroke-width="1.00002"
         id="path73" />
      <path
         d="m 80.645,53.452 c -0.372,0.372 -0.797,0.682 -1.264,0.92 -0.246,0.125 -0.344,0.427 -0.219,0.673 0.088,0.173 0.264,0.273 0.446,0.273 0.076,0 0.154,-0.018 0.227,-0.055 0.562,-0.286 1.072,-0.658 1.518,-1.104 0.195,-0.196 0.195,-0.513 0,-0.708 -0.196,-0.195 -0.513,-0.193 -0.708,10e-4 z"
         class="MsftOfcThm_MainDark1_Fill_v2"
         stroke-width="1.00002"
         id="path75" />
      <path
         d="m 80.275,44.123 c -0.276,0 -0.5,0.224 -0.5,0.5 v 0.851 c 0,0.163 0.079,0.315 0.212,0.409 0.211,0.149 0.41,0.314 0.595,0.493 0.097,0.094 0.223,0.141 0.348,0.141 0.131,0 0.262,-0.051 0.36,-0.153 0.192,-0.199 0.187,-0.516 -0.012,-0.708 -0.159,-0.154 -0.327,-0.299 -0.501,-0.434 v -0.599 c -0.001,-0.276 -0.225,-0.5 -0.502,-0.5 z"
         class="MsftOfcThm_MainDark1_Fill_v2"
         stroke-width="1.00002"
         id="path77" />
    </g>
  </g>
</svg>
