<?xml version="1.0" encoding="UTF-8" standalone="no"?>
<!-- Created with Inkscape (http://www.inkscape.org/) -->

<svg
   width="40mm"
   height="40mm"
   viewBox="0 0 40 40"
   version="1.1"
   id="svg5"
   inkscape:version="1.1 (c68e22c387, 2021-05-23)"
   sodipodi:docname="motion.svg"
   xmlns:inkscape="http://www.inkscape.org/namespaces/inkscape"
   xmlns:sodipodi="http://sodipodi.sourceforge.net/DTD/sodipodi-0.dtd"
   xmlns="http://www.w3.org/2000/svg"
   xmlns:svg="http://www.w3.org/2000/svg">
  <sodipodi:namedview
     id="namedview7"
     pagecolor="#ffffff"
     bordercolor="#666666"
     borderopacity="1.0"
     inkscape:pageshadow="2"
     inkscape:pageopacity="0.0"
     inkscape:pagecheckerboard="0"
     inkscape:document-units="mm"
     showgrid="false"
     inkscape:zoom="3.1108586"
     inkscape:cx="104.95495"
     inkscape:cy="135.65387"
     inkscape:window-width="1920"
     inkscape:window-height="1122"
     inkscape:window-x="-8"
     inkscape:window-y="-8"
     inkscape:window-maximized="1"
     inkscape:current-layer="layer1" />
  <defs
     id="defs2">
    <clipPath
       id="clip0">
      <rect
         x="1426"
         y="1052"
         width="326"
         height="250"
         id="rect927" />
    </clipPath>
    <clipPath
       id="clip1">
      <rect
         x="1459"
         y="1052"
         width="250"
         height="250"
         id="rect930" />
    </clipPath>
    <clipPath
       id="clip2">
      <rect
         x="1459"
         y="1052"
         width="250"
         height="250"
         id="rect933" />
    </clipPath>
    <clipPath
       id="clip3">
      <rect
         x="1459"
         y="1052"
         width="250"
         height="250"
         id="rect936" />
    </clipPath>
    <clipPath
       id="clip4">
      <path
         d="M1426.3 1140.12 1467.99 1067.29 1510.64 1091.7 1468.95 1164.53Z"
         fill-rule="evenodd"
         clip-rule="evenodd"
         id="path939" />
    </clipPath>
    <clipPath
       id="clip5">
      <path
         d="M1426.3 1140.12 1467.99 1067.29 1510.64 1091.7 1468.95 1164.53Z"
         fill-rule="evenodd"
         clip-rule="evenodd"
         id="path942" />
    </clipPath>
    <clipPath
       id="clip6">
      <path
         d="M1426.3 1140.12 1470.56 1062.79 1523.88 1093.31 1479.62 1170.64Z"
         fill-rule="evenodd"
         clip-rule="evenodd"
         id="path945" />
    </clipPath>
    <clipPath
       id="clip7">
      <path
         d="M1667.3 1266.94 1708.99 1194.11 1751.64 1218.52 1709.95 1291.35Z"
         fill-rule="evenodd"
         clip-rule="evenodd"
         id="path948" />
    </clipPath>
    <clipPath
       id="clip8">
      <path
         d="M1667.3 1266.94 1708.99 1194.11 1751.64 1218.52 1709.95 1291.35Z"
         fill-rule="evenodd"
         clip-rule="evenodd"
         id="path951" />
    </clipPath>
    <clipPath
       id="clip9">
      <path
         d="M1667.3 1266.94 1711.56 1189.62 1764.88 1220.13 1720.62 1297.46Z"
         fill-rule="evenodd"
         clip-rule="evenodd"
         id="path954" />
    </clipPath>
  </defs>
  <g
     inkscape:label="Capa 1"
     inkscape:groupmode="layer"
     id="layer1">
    <style
       id="style9">
.MsftOfcThm_MainDark1_Fill_v2 {
 fill:#000000; 
}
</style>
    <style
       id="style329">
.MsftOfcThm_MainDark1_Fill_v2 {
 fill:#000000; 
}
</style>
    <style
       id="style522">
.MsftOfcThm_MainDark1_Fill_v2 {
 fill:#000000; 
}
</style>
    <style
       id="style716">
.MsftOfcThm_MainDark1_Fill_v2 {
 fill:#000000; 
}
</style>
    <style
       id="style1175">
.MsftOfcThm_MainDark1_Fill_v2 {
 fill:#000000; 
}
</style>
    <path
       d="M 35.46354,7.5628669 C 35.140042,6.6366938 34.30826,5.5091772 32.184472,5.3999501 c -0.0069,0 -0.01236,0.00305 -0.01882,0.00305 -0.0063,0 -0.01198,-0.00305 -0.01884,-0.00305 -2.124285,0.1092197 -2.956561,1.2367437 -3.28006,2.163421 -0.910548,2.6068769 0.979907,6.8617399 2.798528,8.7427789 -1.18698,1.203522 -5.732793,1.986743 -9.77379,2.682379 -5.65601,0.973489 -9.122341,1.648491 -9.122341,3.197313 0,1.630871 3.650125,2.264093 7.875909,2.996978 3.062082,0.531543 7.255663,1.258389 7.255663,2.252012 0,1.064092 -5.641147,2.000838 -9.373508,2.620468 -3.538659,0.587417 -6.197484,1.061576 -7.870458,1.638924 1.402979,-2.137749 2.491874,-5.311909 1.757192,-7.414423 -0.323498,-0.926678 -1.155277,-2.054194 -3.2795627,-2.163925 -0.0069,-5.04e-4 -0.01236,0.0031 -0.01932,0.0031 -0.0063,0 -0.01198,-0.0037 -0.01882,-0.0031 -2.12478,0.10973 -2.956562,1.237247 -3.280059,2.164427 -0.952658,2.727682 1.160727,7.265432 3.050687,8.992947 0.0045,0.0045 0.01049,0.0055 0.01479,0.0095 0.0045,0.004 0.0069,0.0095 0.01142,0.01256 0.01591,0.01199 0.03419,0.0177 0.05102,0.02719 0.01049,0.0055 0.02032,0.01312 0.03121,0.01808 0.0054,0.0024 0.01084,0.0049 0.01686,0.0071 0.04012,0.01408 0.08124,0.02265 0.122865,0.02265 v 0 c 0,0 0,0 0,0 0.04756,0 0.09462,-0.01064 0.1397,-0.0297 0.0054,-0.0024 0.01049,-0.0049 0.01629,-0.0076 0.01236,-0.0061 0.02179,-0.01617 0.0332,-0.02315 0.01981,-0.01199 0.04112,-0.02065 0.05945,-0.03673 0.08719,-0.07952 0.17488,-0.171639 0.262565,-0.262248 1.1582477,-0.903523 5.3166567,-1.595131 9.0202847,-2.210232 6.198475,-1.029362 9.99722,-1.742114 9.99722,-3.365938 0,-1.630367 -3.648639,-2.263086 -7.873926,-2.995971 -3.063074,-0.531543 -7.258139,-1.258892 -7.258139,-2.253019 0,-0.989093 4.914886,-1.835232 8.503582,-2.45285 4.809345,-0.827848 9.34822,-1.611573 10.415319,-3.192108 1.8855,-1.741105 3.983034,-6.25872 3.032853,-8.9778457 z M 6.5166843,24.531477 c 0.358672,-1.026845 1.233553,-1.584562 2.59888,-1.660568 1.3643397,0.07551 2.2392187,0.633222 2.5978897,1.660568 0.775801,2.220302 -0.957117,6.20436 -2.5983837,7.929861 -1.640773,-1.725501 -3.373691,-5.709559 -2.598386,-7.929861 z M 29.567261,7.8155517 c 0.358671,-1.0273491 1.233057,-1.5850662 2.598385,-1.6600662 1.364834,0.074994 2.239714,0.6327171 2.597891,1.659562 0.775799,2.2203005 -0.957118,6.2048615 -2.597891,7.9308665 -1.641268,-1.726005 -3.374681,-5.710062 -2.598385,-7.9303623 z"
       class="MsftOfcThm_MainDark1_Fill_v2"
       stroke-width="0.499373"
       id="path1177" />
    <path
       d="m 33.815336,9.2586707 c 0,-0.9246627 -0.74013,-1.6766766 -1.64969,-1.6766766 -0.910055,0 -1.650681,0.7520139 -1.650681,1.6766766 0,0.9246643 0.740626,1.6766763 1.650681,1.6766763 0.90956,0 1.64969,-0.752012 1.64969,-1.6766763 z m -2.557267,0 c 0,-0.5083887 0.40722,-0.9216436 0.907577,-0.9216436 0.49986,0 0.906586,0.4132549 0.906586,0.9216436 0,0.5083904 -0.406726,0.9216433 -0.906586,0.9216433 -0.500357,0 -0.907577,-0.4132529 -0.907577,-0.9216433 z"
       class="MsftOfcThm_MainDark1_Fill_v2"
       stroke-width="0.499373"
       id="path1179" />
    <path
       d="m 10.765255,25.974094 c 0,-0.924161 -0.740133,-1.676172 -1.6496907,-1.676172 -0.910052,0 -1.650679,0.752011 -1.650679,1.676172 0,0.924664 0.740627,1.677181 1.650679,1.677181 0.9095577,0 1.6496907,-0.752517 1.6496907,-1.677181 z m -2.5572667,0 c 0,-0.507885 0.407221,-0.92114 0.907576,-0.92114 0.499862,0 0.9065867,0.413255 0.9065867,0.92114 0,0.508388 -0.4067247,0.922148 -0.9065867,0.922148 -0.500355,0 -0.907576,-0.41376 -0.907576,-0.922148 z"
       class="MsftOfcThm_MainDark1_Fill_v2"
       stroke-width="0.499373"
       id="path1181" />
  </g>
</svg>
