<?xml version="1.0" encoding="UTF-8" standalone="no"?>
<!-- Created with Inkscape (http://www.inkscape.org/) -->

<svg
   width="40mm"
   height="40mm"
   viewBox="0 0 40 40"
   version="1.1"
   id="svg5"
   inkscape:version="1.1 (c68e22c387, 2021-05-23)"
   sodipodi:docname="tracking.svg"
   xmlns:inkscape="http://www.inkscape.org/namespaces/inkscape"
   xmlns:sodipodi="http://sodipodi.sourceforge.net/DTD/sodipodi-0.dtd"
   xmlns="http://www.w3.org/2000/svg"
   xmlns:svg="http://www.w3.org/2000/svg">
  <sodipodi:namedview
     id="namedview7"
     pagecolor="#ffffff"
     bordercolor="#666666"
     borderopacity="1.0"
     inkscape:pageshadow="2"
     inkscape:pageopacity="0.0"
     inkscape:pagecheckerboard="0"
     inkscape:document-units="mm"
     showgrid="false"
     inkscape:zoom="3.1108586"
     inkscape:cx="53.200747"
     inkscape:cy="78.113483"
     inkscape:window-width="1920"
     inkscape:window-height="1122"
     inkscape:window-x="-8"
     inkscape:window-y="-8"
     inkscape:window-maximized="1"
     inkscape:current-layer="layer1" />
  <defs
     id="defs2" />
  <g
     inkscape:label="Capa 1"
     inkscape:groupmode="layer"
     id="layer1">
    <style
       id="style9">
.MsftOfcThm_MainDark1_Fill_v2 {
 fill:#000000; 
}
</style>
    <style
       id="style329">
.MsftOfcThm_MainDark1_Fill_v2 {
 fill:#000000; 
}
</style>
    <style
       id="style522">
.MsftOfcThm_MainDark1_Fill_v2 {
 fill:#000000; 
}
</style>
    <style
       id="style716">
.MsftOfcThm_MainDark1_Fill_v2 {
 fill:#000000; 
}
</style>
    <path
       d="m 21.727536,34.271841 c -8.491744,0 -15.4000023,-6.393193 -15.4000023,-14.251808 0,-7.858614 6.9082583,-14.2518054 15.4000023,-14.2518054 8.491744,0 15.400004,6.3931914 15.400004,14.2518054 0,7.858615 -6.90826,14.251808 -15.400004,14.251808 z m 0,-27.5407832 c -7.917428,0 -14.3596013,5.9618572 -14.3596013,13.2889752 0,7.327121 6.4421733,13.288978 14.3596013,13.288978 7.91743,0 14.359603,-5.961857 14.359603,-13.288978 0,-7.327118 -6.442173,-13.2889752 -14.359603,-13.2889752 z"
       class="MsftOfcResponsive_Stroke_0070c0 MsftOfcThm_MainDark1_Fill_v2"
       stroke-width="0.582834"
       fill="#000000"
       id="path718" />
    <path
       d="m 21.727667,30.281579 c -6.11546,0 -11.088528,-4.604277 -11.088528,-10.261871 0,-5.657551 4.975176,-10.2617881 11.088528,-10.2617881 6.115507,0 11.088618,4.6042371 11.088618,10.2617881 0,5.657594 -4.97522,10.261871 -11.088618,10.261871 z m 0,-19.56278 c -5.541146,0 -10.048128,4.172942 -10.048128,9.299039 0,5.126098 4.509048,9.298999 10.048128,9.298999 5.539125,0 10.048218,-4.172901 10.048218,-9.298999 0,-5.126097 -4.507027,-9.299039 -10.048218,-9.299039 z"
       class="MsftOfcResponsive_Stroke_0070c0 MsftOfcThm_MainDark1_Fill_v2"
       stroke-width="0.582834"
       fill="#000000"
       id="path720" />
    <path
       d="m 21.72657,26.293715 c -3.737114,0 -6.779252,-2.815281 -6.779252,-6.273803 0,-3.458482 3.040029,-6.273763 6.779252,-6.273763 3.737114,0 6.779296,2.81337 6.779296,6.273763 0,3.458522 -3.042182,6.273803 -6.779296,6.273803 z m 0,-11.584736 c -3.164907,0 -5.738851,2.382036 -5.738851,5.310933 0,2.928937 2.573944,5.310973 5.738851,5.310973 3.164906,0 5.738895,-2.382036 5.738895,-5.310973 0,-2.928897 -2.576097,-5.310933 -5.738895,-5.310933 z"
       class="MsftOfcResponsive_Stroke_0070c0 MsftOfcThm_MainDark1_Fill_v2"
       stroke-width="0.582834"
       fill="#000000"
       id="path722" />
    <path
       d="m 21.726965,22.303492 c -1.360744,0 -2.467602,-1.024374 -2.467602,-2.283662 0,-1.259289 1.106858,-2.283703 2.467602,-2.283703 1.360744,0 2.467647,1.024414 2.467647,2.283703 0,1.259288 -1.106903,2.283662 -2.467647,2.283662 z m 0,-3.606486 c -0.786471,0 -1.427289,0.59308 -1.427289,1.320913 0,0.727875 0.640818,1.320874 1.427289,1.320874 0.786471,0 1.427334,-0.592999 1.427334,-1.320874 0,-0.727833 -0.640863,-1.320913 -1.427334,-1.320913 z"
       class="MsftOfcResponsive_Stroke_0070c0 MsftOfcThm_MainDark1_Fill_v2"
       stroke-width="0.582834"
       fill="#000000"
       id="path724" />
  </g>
</svg>
