<?xml version="1.0" encoding="UTF-8" standalone="no"?>
<!-- Created with Inkscape (http://www.inkscape.org/) -->

<svg
   width="40mm"
   height="40mm"
   viewBox="0 0 40 40"
   version="1.1"
   id="svg5"
   inkscape:version="1.1 (c68e22c387, 2021-05-23)"
   sodipodi:docname="tracking.svg"
   xmlns:inkscape="http://www.inkscape.org/namespaces/inkscape"
   xmlns:sodipodi="http://sodipodi.sourceforge.net/DTD/sodipodi-0.dtd"
   xmlns="http://www.w3.org/2000/svg"
   xmlns:svg="http://www.w3.org/2000/svg">
  <sodipodi:namedview
     id="namedview7"
     pagecolor="#ffffff"
     bordercolor="#666666"
     borderopacity="1.0"
     inkscape:pageshadow="2"
     inkscape:pageopacity="0.0"
     inkscape:pagecheckerboard="0"
     inkscape:document-units="mm"
     showgrid="false"
     inkscape:zoom="0.77771465"
     inkscape:cx="80.363666"
     inkscape:cy="551.6162"
     inkscape:window-width="1920"
     inkscape:window-height="1122"
     inkscape:window-x="-8"
     inkscape:window-y="-8"
     inkscape:window-maximized="1"
     inkscape:current-layer="layer1" />
  <defs
     id="defs2" />
  <g
     inkscape:label="Capa 1"
     inkscape:groupmode="layer"
     id="layer1">
    <style
       id="style9">
.MsftOfcThm_MainDark1_Fill_v2 {
 fill:#000000; 
}
</style>
    <style
       id="style329">
.MsftOfcThm_MainDark1_Fill_v2 {
 fill:#000000; 
}
</style>
    <style
       id="style522">
.MsftOfcThm_MainDark1_Fill_v2 {
 fill:#000000; 
}
</style>
    <style
       id="style716">
.MsftOfcThm_MainDark1_Fill_v2 {
 fill:#000000; 
}
</style>
    <path
       d="m 21.727536,29.679058 c -5.115057,0 -9.276291,-4.161235 -9.276291,-9.276292 0,-5.115057 4.161234,-9.276291 9.276291,-9.276291 5.115057,0 9.276292,4.161234 9.276292,9.276291 0,5.115057 -4.161235,9.276292 -9.276292,9.276292 z m 0,-17.925891 c -4.769114,0 -8.649599,3.880485 -8.649599,8.649599 0,4.769115 3.880485,8.6496 8.649599,8.6496 4.769115,0 8.6496,-3.880485 8.6496,-8.6496 0,-4.769114 -3.880485,-8.649599 -8.6496,-8.649599 z"
       class="MsftOfcResponsive_Stroke_0070c0 MsftOfcThm_MainDark1_Fill_v2"
       stroke-width="0.364942"
       fill="#000000"
       id="path718" />
    <path
       d="m 21.727615,27.081855 c -3.683687,0 -6.679247,-2.996856 -6.679247,-6.679301 0,-3.682417 2.99683,-6.679247 6.679247,-6.679247 3.683715,0 6.679301,2.99683 6.679301,6.679247 0,3.682445 -2.996856,6.679301 -6.679301,6.679301 z m 0,-12.733126 c -3.337745,0 -6.052555,2.716107 -6.052555,6.052608 0,3.336502 2.716054,6.052582 6.052555,6.052582 3.336528,0 6.052609,-2.71608 6.052609,-6.052582 0,-3.336501 -2.714837,-6.052608 -6.052609,-6.052608 z"
       class="MsftOfcResponsive_Stroke_0070c0 MsftOfcThm_MainDark1_Fill_v2"
       stroke-width="0.364942"
       fill="#000000"
       id="path720" />
    <path
       d="m 21.726954,24.486213 c -2.251075,0 -4.083526,-1.832425 -4.083526,-4.083526 0,-2.251075 1.831181,-4.0835 4.083526,-4.0835 2.251075,0 4.083553,1.831181 4.083553,4.0835 0,2.251101 -1.832478,4.083526 -4.083553,4.083526 z m 0,-7.540334 c -1.906402,0 -3.456834,1.550432 -3.456834,3.456808 0,1.906402 1.550432,3.456834 3.456834,3.456834 1.906402,0 3.456861,-1.550432 3.456861,-3.456834 0,-1.906376 -1.551729,-3.456808 -3.456861,-3.456808 z"
       class="MsftOfcResponsive_Stroke_0070c0 MsftOfcThm_MainDark1_Fill_v2"
       stroke-width="0.364942"
       fill="#000000"
       id="path722" />
    <path
       d="m 21.727192,21.889036 c -0.819653,0 -1.486376,-0.66675 -1.486376,-1.486402 0,-0.819653 0.666723,-1.486429 1.486376,-1.486429 0.819653,0 1.486403,0.666776 1.486403,1.486429 0,0.819652 -0.66675,1.486402 -1.486403,1.486402 z m 0,-2.347409 c -0.473736,0 -0.859737,0.386027 -0.859737,0.859763 0,0.473763 0.386001,0.859737 0.859737,0.859737 0.473736,0 0.859764,-0.385974 0.859764,-0.859737 0,-0.473736 -0.386028,-0.859763 -0.859764,-0.859763 z"
       class="MsftOfcResponsive_Stroke_0070c0 MsftOfcThm_MainDark1_Fill_v2"
       stroke-width="0.364942"
       fill="#000000"
       id="path724" />
  </g>
</svg>
